<svg width="33" height="35" viewBox="0 0 33 35" fill="none" xmlns="http://www.w3.org/2000/svg">
<path d="M23.2005 7.49542L29.786 1.09195C30.6818 0.22091 32.2137 0.837818 32.2137 2.06976V19.1807C32.2136 13.6306 27.6939 10.2552 23.2005 7.49542Z" fill="#FF7236"/>
<path d="M32.2138 19.1809C32.2138 27.7858 25.0399 34.7613 16.1905 34.7613C7.3411 34.7613 0.167175 27.7857 0.167175 19.1809C0.167175 10.5762 7.34099 4.57434 16.1905 4.57434C25.04 4.57434 32.2138 10.5761 32.2138 19.1809Z" fill="#FFAA50"/>
<path d="M9.18011 19.1807C9.18011 11.6816 13.6084 6.163 19.5055 4.86763C18.4354 4.6767 17.3274 4.57412 16.1904 4.57412C13.2417 4.57412 10.4884 5.25302 8.11518 6.45992L2.59458 1.09195C1.69877 0.22091 0.166931 0.837818 0.166931 2.06976V19.1807C0.166931 18.8295 0.166931 18.8314 0.166931 19.1807C0.166931 27.7856 7.34086 34.7611 16.1902 34.7611C17.3274 34.7611 18.4354 34.642 19.5054 34.4231C13.6084 32.9377 9.18011 26.6797 9.18011 19.1807Z" fill="#FF7236"/>
<path d="M12.6852 28.9184C14.621 28.9184 16.1902 27.6105 16.1902 25.9971C16.1902 24.3837 14.621 23.0758 12.6852 23.0758C10.7494 23.0758 9.18011 24.3837 9.18011 25.9971C9.18011 27.6105 10.7494 28.9184 12.6852 28.9184Z" fill="#FFFDFB"/>
<path d="M19.6957 28.9184C21.6315 28.9184 23.2007 27.6105 23.2007 25.9971C23.2007 24.3837 21.6315 23.0758 19.6957 23.0758C17.7599 23.0758 16.1906 24.3837 16.1906 25.9971C16.1906 27.6105 17.7599 28.9184 19.6957 28.9184Z" fill="#FFFDFB"/>
<path d="M16.1906 25.9978C17.2968 25.9978 18.1935 25.1258 18.1935 24.0502C18.1935 22.9746 17.2968 22.1027 16.1906 22.1027C15.0844 22.1027 14.1876 22.9746 14.1876 24.0502C14.1876 25.1258 15.0844 25.9978 16.1906 25.9978Z" fill="#FF913C"/>
<path d="M10.1818 20.1545C9.62821 20.1545 9.18036 19.7184 9.18036 19.1807V18.207C9.18036 17.6693 9.62832 17.2333 10.1818 17.2333C10.7352 17.2333 11.1832 17.6693 11.1832 18.207V19.1807C11.1832 19.7184 10.7352 20.1545 10.1818 20.1545Z" fill="#1A212F"/>
<path d="M22.199 20.1545C21.6455 20.1545 21.1976 19.7184 21.1976 19.1807V18.207C21.1976 17.6693 21.6456 17.2333 22.199 17.2333C22.7526 17.2333 23.2005 17.6693 23.2005 18.207V19.1807C23.2006 19.7184 22.7526 20.1545 22.199 20.1545Z" fill="#1A212F"/>
</svg>
