<svg width="64" height="52" viewBox="0 0 64 52" fill="none" xmlns="http://www.w3.org/2000/svg">
<path d="M8.05458 47.8908C7.97386 46.9443 7.39265 46.0136 5.79431 45.9347C6.77914 45.8085 8.13531 43.5999 7.55409 41.9593C7.06975 40.6342 5.61671 41.1548 4.76104 41.4072C4.59959 42.6692 4.97092 44.9882 3.53403 45.2879C3.46945 44.6253 3.59861 43.5211 3.42102 42.3695C3.08198 40.4607 0.69254 41.3441 0.143616 41.5807C0.353499 43.6946 0.321209 44.2625 0.321209 46.8023C0.337354 47.67 0.240485 49.0424 0.321209 49.7839C0.547237 51.7558 2.95282 51.2352 3.61475 50.5568C3.61475 49.7208 3.59861 48.017 3.55018 47.0705C4.61573 46.9916 4.80947 47.2914 4.84176 49.4999C4.85791 51.7084 7.53795 51.2983 8.32905 50.5411C8.05459 49.7208 8.13531 48.6796 8.05458 47.8908Z" fill="#1A212F"/>
<path d="M9.45527 46.266C9.45527 50.8408 11.877 51.2194 13.5722 51.1721C15.1383 51.1721 17.7053 50.7461 17.7214 46.266C17.7053 42.4326 15.9616 41.0759 13.6206 41.0759C11.1505 41.0759 9.45527 42.5588 9.45527 46.266ZM13.6206 43.6473C13.7982 43.6473 14.4763 43.3949 14.4763 46.1555C14.4763 47.9539 14.1857 48.9793 13.6045 48.9793C13.1202 48.9793 12.7327 48.5534 12.7811 46.1555C12.7811 43.9785 13.3462 43.6473 13.6206 43.6473Z" fill="#1A212F"/>
<path d="M21.0434 43.9785C21.0434 44.8777 21.0272 45.8716 21.0756 48.932C21.0918 50.1625 21.1402 51.1721 22.5933 51.1405C23.8848 51.1405 24.2077 50.6357 24.353 50.478C24.4015 49.1055 24.3046 46.1082 24.2723 44.0259C24.6275 44.0259 24.9665 44.0259 25.2733 44.0101C26.3066 43.9785 26.6618 43.3791 26.6456 42.543C26.6295 41.5965 25.8384 41.0917 24.7405 41.0917H21.673C19.2351 41.1074 19.0737 41.1074 18.8799 41.0917C18.4279 42.9532 18.7024 43.947 20.559 43.9785H21.0434Z" fill="#1A212F"/>
<path d="M33.2958 41.1548C32.1656 41.0443 29.4372 41.0917 27.5482 41.1705C27.7581 43.2687 27.7742 45.9662 27.7419 47.875C27.7742 49.705 27.6128 50.9828 29.5825 51.109C30.874 51.2036 31.6006 51.2036 32.763 51.109C34.3452 50.9828 34.991 50.1467 34.2322 48.3167C32.9244 48.5061 31.7136 48.5534 30.9548 48.4114C30.9548 48.1905 30.9225 47.4964 30.9548 47.3229C31.6813 47.3229 32.4724 47.2914 33.1666 47.2914C34.6035 47.2914 34.4582 45.0355 33.1505 45.0355C32.2141 44.9882 31.7943 45.0828 30.9225 45.0039V43.7577C31.9073 43.6788 32.3432 43.7261 33.1666 43.7577C34.7165 43.805 34.7165 41.4703 33.2958 41.1548Z" fill="#1A212F"/>
<path d="M38.339 37.7158C37.2735 38.3941 37.338 39.4195 38.0968 40.0347C38.9525 40.6342 40.6316 40.4449 41.7617 39.9558C42.795 39.4984 43.1986 38.4572 42.1008 37.6842C40.4701 38.5203 39.3884 38.0944 38.339 37.7158ZM44.0866 42.4957C44.0866 41.5492 43.4731 41.0917 42.5044 41.0917C41.3742 41.0917 40.793 41.3756 40.454 42.3852C40.0504 43.6157 39.453 45.5087 39.114 46.8181C39.114 46.2502 39.2108 42.9058 39.2108 42.4957C39.2108 41.4545 38.6458 41.0917 37.6932 41.0917C37.0313 41.0917 35.8527 41.5018 35.8527 41.5018C35.9496 42.2117 36.0303 42.6219 36.0464 43.5526C36.0787 44.5307 36.0464 46.0924 36.1433 49.1844C36.1917 50.6988 36.6922 51.2036 37.9515 51.1563C40.2118 51.0774 40.3571 47.0074 40.9706 45.5245C40.9706 46.2029 40.9383 48.5534 40.9383 49.3421C40.9383 50.4149 41.0352 51.1563 42.3106 51.1563C43.4085 51.1563 44.0381 50.7935 44.2319 50.4622C44.1027 49.9889 44.0543 47.1178 44.0543 44.862C44.0543 43.8681 44.0704 43.0005 44.0866 42.4957Z" fill="#1A212F"/>
<path d="M53.4399 47.8908C53.3591 46.9443 52.7779 46.0136 51.1796 45.9347C52.1644 45.8085 53.5206 43.5999 52.9394 41.9593C52.455 40.6342 51.002 41.1548 50.1463 41.4072C49.9849 42.6692 50.3562 44.9882 48.9193 45.2879C48.8547 44.6253 48.9839 43.5211 48.8063 42.3695C48.4672 40.4607 46.0778 41.3441 45.5289 41.5807C45.7388 43.6946 45.7065 44.2625 45.7065 46.8023C45.7226 47.67 45.6258 49.0424 45.7065 49.7839C45.9325 51.7558 48.3381 51.2352 49 50.5568C49 49.7208 48.9839 48.017 48.9354 47.0705C50.001 46.9916 50.1947 47.2914 50.227 49.4999C50.2432 51.7084 52.9232 51.2983 53.7143 50.5411C53.4399 49.7208 53.5206 48.6796 53.4399 47.8908Z" fill="#1A212F"/>
<path d="M63.2359 50.478C63.0098 49.8627 63.026 49.563 62.9775 48.6796C62.8484 46.3764 62.8161 44.1521 62.0411 42.6219C60.7334 40.366 57.3591 40.9812 55.7285 42.1171C55.5832 44.8462 55.0989 45.9662 54.7921 49.0109C54.5661 51.2352 56.4712 51.8504 58.2471 50.7619C58.2471 50.4937 58.2471 49.563 58.3278 49.3421C58.5377 49.3421 59.3288 49.3579 59.6356 49.3579C59.6356 49.3579 59.5548 50.2729 60.0069 50.7619C60.8141 51.6611 62.6708 51.3929 63.2359 50.478ZM58.4408 47.3702C58.5539 46.5184 58.5539 44.7515 58.6023 44.3729C58.683 44.3098 59.2319 44.3414 59.2965 44.4203C59.4903 45.1617 59.4903 46.5184 59.5387 47.3702H58.4408Z" fill="#1A212F"/>
<path d="M39.2005 7.49542L45.786 1.09195C46.6818 0.22091 48.2137 0.837818 48.2137 2.06976V19.1807C48.2136 13.6306 43.6939 10.2552 39.2005 7.49542Z" fill="#FF7236"/>
<path d="M48.2138 19.1809C48.2138 27.7858 41.0399 34.7613 32.1905 34.7613C23.3411 34.7613 16.1672 27.7857 16.1672 19.1809C16.1672 10.5762 23.341 4.57434 32.1905 4.57434C41.04 4.57434 48.2138 10.5761 48.2138 19.1809Z" fill="#FFAA50"/>
<path d="M25.1801 19.1807C25.1801 11.6816 29.6084 6.163 35.5055 4.86763C34.4354 4.6767 33.3274 4.57412 32.1904 4.57412C29.2417 4.57412 26.4884 5.25302 24.1152 6.45992L18.5946 1.09195C17.6988 0.22091 16.1669 0.837818 16.1669 2.06976V19.1807C16.1669 18.8295 16.1669 18.8314 16.1669 19.1807C16.1669 27.7856 23.3409 34.7611 32.1902 34.7611C33.3274 34.7611 34.4354 34.642 35.5054 34.4231C29.6084 32.9377 25.1801 26.6797 25.1801 19.1807Z" fill="#FF7236"/>
<path d="M28.6852 28.9184C30.621 28.9184 32.1902 27.6105 32.1902 25.9971C32.1902 24.3837 30.621 23.0758 28.6852 23.0758C26.7494 23.0758 25.1801 24.3837 25.1801 25.9971C25.1801 27.6105 26.7494 28.9184 28.6852 28.9184Z" fill="#FFFDFB"/>
<path d="M35.6957 28.9184C37.6315 28.9184 39.2007 27.6105 39.2007 25.9971C39.2007 24.3837 37.6315 23.0758 35.6957 23.0758C33.7599 23.0758 32.1906 24.3837 32.1906 25.9971C32.1906 27.6105 33.7599 28.9184 35.6957 28.9184Z" fill="#FFFDFB"/>
<path d="M32.1906 25.9978C33.2968 25.9978 34.1935 25.1258 34.1935 24.0502C34.1935 22.9746 33.2968 22.1027 32.1906 22.1027C31.0844 22.1027 30.1876 22.9746 30.1876 24.0502C30.1876 25.1258 31.0844 25.9978 32.1906 25.9978Z" fill="#FF913C"/>
<path d="M26.1818 20.1545C25.6282 20.1545 25.1804 19.7184 25.1804 19.1807V18.207C25.1804 17.6693 25.6283 17.2333 26.1818 17.2333C26.7352 17.2333 27.1832 17.6693 27.1832 18.207V19.1807C27.1832 19.7184 26.7352 20.1545 26.1818 20.1545Z" fill="#1A212F"/>
<path d="M38.199 20.1545C37.6455 20.1545 37.1976 19.7184 37.1976 19.1807V18.207C37.1976 17.6693 37.6456 17.2333 38.199 17.2333C38.7526 17.2333 39.2005 17.6693 39.2005 18.207V19.1807C39.2006 19.7184 38.7526 20.1545 38.199 20.1545Z" fill="#1A212F"/>
</svg>
